<svg width="625" height="558" viewBox="0 0 625 558" fill="none" xmlns="http://www.w3.org/2000/svg">
<path d="M625 0H0V557.29H625V0Z" fill="#FC4F00"/>
<g clip-path="url(#clip0_4019_4442)">
<path d="M232.251 418.101L152 279.061L232.251 140H392.744L472.995 279.061L392.744 418.101H232.251Z" fill="#1D1D1B"/>
<path d="M247.678 391.36L182.863 279.06L247.678 166.74H377.317L442.131 279.06L377.317 391.36H247.678Z" fill="#FBBA00"/>
<path d="M378.661 393.691H246.323L180.164 279.061L180.841 277.895L246.323 164.4H378.671L379.338 165.565L444.83 279.051L378.661 393.691V393.691ZM249.022 389.01H375.962L439.432 279.051L375.962 169.081H249.032L185.562 279.061L249.032 389.02L249.022 389.01Z" fill="white"/>
<path d="M293.899 226.426H330.967L350.786 176.72L404.436 285.683L346.424 319.963L327.82 381.013H297.176L278.642 319.873L220.569 285.683L274.13 176.72L293.899 226.426Z" fill="#1D1D1B"/>
<path d="M350.786 266.711V296.041H323.378L350.786 266.711ZM301.478 296.041L274.12 266.711V296.041H301.478Z" fill="white"/>
</g>
<defs>
<clipPath id="clip0_4019_4442">
<rect width="320.995" height="278.101" fill="white" transform="translate(152 140)"/>
</clipPath>
</defs>
</svg>
